<?xml version="1.0" standalone="no"?>
<!DOCTYPE svg PUBLIC "-//W3C//DTD SVG 20010904//EN"
 "http://www.w3.org/TR/2001/REC-SVG-20010904/DTD/svg10.dtd">
<svg version="1.0" xmlns="http://www.w3.org/2000/svg"
 width="256.000000pt" height="256.000000pt" viewBox="0 0 256.000000 256.000000"
 preserveAspectRatio="xMidYMid meet">

<g transform="translate(0.000000,256.000000) scale(0.100000,-0.100000)"
fill="#000000" stroke="none">
<path d="M155 2471 c-11 -5 -31 -21 -45 -36 l-25 -27 0 -929 0 -929 33 -32 32
-33 435 -3 c347 -2 435 -5 435 -16 0 -7 -6 -32 -14 -57 -8 -24 -29 -90 -46
-146 l-31 -103 -64 0 -65 0 0 -40 0 -40 480 0 480 0 0 40 0 40 -65 0 -64 0
-31 103 c-17 56 -38 122 -46 146 -8 25 -14 50 -14 57 0 11 88 14 435 16 l435
3 32 33 33 32 0 930 0 930 -33 32 -32 33 -1118 2 c-614 1 -1126 -2 -1137 -6z
m2233 -83 c9 -9 12 -200 12 -800 l0 -788 -1120 0 -1120 0 0 788 c0 600 3 791
12 800 17 17 2199 17 2216 0z m12 -1736 c0 -40 -5 -73 -12 -80 -17 -17 -2199
-17 -2216 0 -7 7 -12 40 -12 80 l0 68 1120 0 1120 0 0 -68z m-920 -274 c17
-57 38 -123 46 -147 24 -76 42 -71 -246 -71 -288 0 -270 -5 -246 71 8 24 29
90 46 147 l31 102 169 0 169 0 31 -102z"/>
<path d="M819 2240 c-36 -87 -38 -90 -87 -110 -30 -12 -40 -10 -118 20 l-85
33 -76 -76 -76 -76 33 -85 c30 -78 32 -88 20 -118 -20 -49 -23 -51 -110 -87
l-80 -33 0 -108 0 -108 80 -33 c87 -36 90 -38 110 -87 12 -30 10 -40 -20 -118
l-33 -85 76 -76 76 -76 85 33 c84 32 86 32 126 16 22 -9 42 -16 44 -16 6 0 29
71 24 74 -1 1 -26 12 -55 24 l-52 22 -78 -30 -78 -30 -38 38 -38 38 30 78 31
77 -26 62 c-14 34 -30 67 -35 73 -6 7 -41 25 -79 40 l-70 29 0 55 0 55 70 29
c38 15 73 33 79 40 5 6 21 39 35 73 l26 62 -31 77 -30 78 39 38 38 39 78 -30
77 -31 62 26 c34 14 67 30 73 35 7 6 25 41 40 79 l29 70 55 0 55 0 29 -70 c15
-38 33 -73 40 -79 6 -5 39 -21 73 -35 l62 -26 78 30 77 30 41 -40 41 -40 27
28 27 28 -60 59 -59 58 -85 -33 c-78 -30 -88 -32 -118 -20 -49 20 -51 23 -87
110 l-33 80 -108 0 -108 0 -33 -80z"/>
<path d="M729 1926 c-61 -45 -96 -89 -133 -166 -28 -58 -31 -75 -31 -160 0
-86 3 -102 31 -160 36 -76 79 -129 141 -171 l43 -30 17 37 c18 37 18 37 -7 52
-44 28 -96 87 -121 138 -34 69 -33 197 1 268 24 50 76 110 119 137 23 15 24
18 12 48 -8 17 -17 33 -20 35 -4 3 -27 -10 -52 -28z"/>
<path d="M955 1950 c-11 -4 -31 -20 -45 -35 l-25 -27 0 -469 0 -469 33 -32 32
-33 650 0 650 0 32 33 33 32 0 390 0 390 -33 32 -32 33 -298 3 -297 3 -70 68
c-38 38 -80 74 -92 80 -26 13 -507 14 -538 1z m575 -136 c36 -36 77 -72 92
-80 22 -11 84 -14 311 -14 207 0 286 -3 295 -12 17 -17 17 -719 0 -736 -17
-17 -1239 -17 -1256 0 -17 17 -17 879 0 896 9 9 79 12 253 12 l241 0 64 -66z"/>
<path d="M1215 1470 l-110 -110 112 -112 111 -111 30 24 30 24 -86 87 -87 88
83 83 c85 86 93 105 51 127 -10 6 -19 10 -21 10 -2 0 -53 -50 -113 -110z"/>
<path d="M1837 1562 c-10 -10 -17 -23 -17 -28 0 -5 37 -46 82 -91 l83 -83 -85
-85 -85 -85 28 -27 27 -28 112 113 113 112 -110 110 c-60 60 -115 110 -121
110 -6 0 -18 -8 -27 -18z"/>
<path d="M1587 1364 c-53 -96 -97 -178 -97 -182 0 -5 15 -15 33 -24 l33 -16
97 174 c53 96 97 178 97 182 0 5 -15 15 -33 24 l-33 16 -97 -174z"/>
</g>
</svg>
