<?xml version="1.0" standalone="no"?>
<!DOCTYPE svg PUBLIC "-//W3C//DTD SVG 20010904//EN"
 "http://www.w3.org/TR/2001/REC-SVG-20010904/DTD/svg10.dtd">
<svg version="1.0" xmlns="http://www.w3.org/2000/svg"
 width="980.000000pt" height="980.000000pt" viewBox="0 0 980.000000 980.000000"
 preserveAspectRatio="xMidYMid meet">

<g transform="translate(0.000000,980.000000) scale(0.100000,-0.100000)"
fill="#000000" stroke="none">
<path d="M4650 7777 c-119 -73 -239 -147 -268 -165 -29 -18 -57 -44 -62 -58
-12 -32 -13 -584 -1 -616 6 -15 99 -84 258 -190 l250 -167 6 -107 c4 -59 7
-151 7 -206 0 -85 3 -101 20 -118 24 -24 48 -25 78 -4 23 16 23 18 21 225 0
116 0 211 2 212 39 23 470 316 487 330 22 20 22 22 22 332 0 234 -3 315 -12
327 -24 31 -542 338 -568 337 -14 0 -122 -60 -240 -132z m421 -105 c97 -59
187 -114 199 -123 23 -15 20 -18 -164 -135 -102 -65 -192 -123 -199 -128 -9
-6 -75 31 -206 115 -105 68 -193 128 -194 133 -2 8 366 243 383 245 3 1 84
-47 181 -107z m-398 -397 l157 -100 0 -223 c0 -123 -4 -222 -8 -220 -5 2 -92
59 -195 128 l-186 125 -1 218 0 218 38 -23 c21 -13 109 -68 195 -123z m677
-70 l0 -214 -192 -131 c-105 -72 -196 -126 -200 -122 -5 5 -7 104 -6 222 l3
213 190 123 c105 68 193 123 198 123 4 1 7 -96 7 -214z"/>
<path d="M4085 6871 c-16 -10 -131 -75 -255 -145 -124 -70 -231 -135 -237
-144 -7 -9 -13 -24 -13 -34 0 -25 35 -58 62 -58 12 0 139 66 281 148 280 159
296 172 259 221 -24 32 -58 37 -97 12z"/>
<path d="M5662 6854 c-26 -18 -30 -65 -7 -88 8 -8 41 -30 72 -49 299 -177 443
-257 461 -257 35 0 65 37 57 68 -3 15 -9 30 -13 34 -9 8 -455 269 -499 292
-39 20 -43 20 -71 0z"/>
<path d="M2650 6670 c-107 -65 -229 -140 -270 -167 l-75 -48 -2 -320 c-2 -176
0 -325 5 -331 14 -21 548 -374 565 -374 10 0 126 72 258 161 132 88 246 163
254 165 7 3 35 -10 62 -29 179 -125 336 -227 350 -227 23 0 38 10 51 36 23 43
4 61 -199 200 l-199 136 0 288 c0 261 -2 288 -17 302 -10 9 -134 86 -276 172
-166 101 -268 156 -285 156 -17 0 -103 -47 -222 -120z m412 -121 c101 -61 189
-117 196 -123 10 -10 -23 -36 -174 -132 -103 -65 -193 -122 -199 -126 -11 -7
-397 233 -402 250 -3 6 373 240 389 241 4 1 90 -49 190 -110z m-442 -371 l190
-121 0 -225 0 -224 -22 15 c-13 8 -99 66 -193 130 l-170 114 -3 217 c-1 119 0
216 3 216 3 0 91 -55 195 -122z m710 -93 l0 -215 -195 -130 c-107 -72 -195
-128 -195 -125 0 3 -1 103 -1 223 l-1 217 189 122 c103 68 191 123 196 123 4
0 7 -97 7 -215z"/>
<path d="M6630 6592 l-275 -167 -5 -293 -5 -293 -200 -127 c-176 -112 -200
-130 -203 -155 -4 -35 22 -67 55 -67 13 0 103 50 199 110 97 61 185 115 195
121 15 8 61 -19 266 -156 166 -111 255 -165 272 -164 16 0 126 68 296 183
l270 182 3 327 2 326 -56 36 c-53 34 -242 149 -420 256 -44 27 -89 49 -100 49
-10 -1 -143 -76 -294 -168z m498 -87 c105 -64 192 -118 192 -121 0 -2 -30 -24
-67 -48 -128 -83 -323 -206 -327 -206 -7 0 -370 231 -384 245 -11 10 23 35
184 133 109 66 201 119 204 117 3 -1 92 -55 198 -120z m-428 -378 c85 -55 157
-101 158 -102 8 -7 4 -440 -4 -440 -5 0 -93 56 -196 125 l-187 125 -1 218 0
219 38 -23 c20 -13 107 -68 192 -122z m680 -74 l0 -218 -189 -127 c-104 -71
-192 -128 -195 -128 -3 0 -6 100 -6 223 l0 222 193 122 c105 67 193 123 195
123 1 0 2 -98 2 -217z"/>
<path d="M4305 6386 c-39 -17 -332 -183 -367 -208 -50 -35 -27 -109 33 -107
13 0 112 51 219 112 194 111 195 112 198 149 2 28 -2 40 -20 52 -27 19 -25 19
-63 2z"/>
<path d="M5450 6360 c-25 -25 -26 -52 -2 -78 28 -32 383 -234 410 -234 49 0
75 64 40 99 -25 24 -392 233 -410 233 -10 0 -27 -9 -38 -20z"/>
<path d="M4014 5595 c-16 -24 -13 -35 80 -307 53 -155 100 -285 104 -289 4 -4
19 -10 33 -14 46 -11 65 18 106 162 21 73 41 133 44 133 3 0 21 -53 39 -117
40 -144 53 -171 85 -179 52 -13 62 7 161 296 52 151 94 282 94 291 0 38 -77
67 -97 37 -4 -7 -38 -100 -74 -208 l-66 -195 -22 75 c-69 231 -72 240 -97 256
-22 15 -26 15 -47 1 -19 -12 -33 -47 -67 -166 -24 -83 -47 -151 -50 -151 -3 0
-32 80 -64 178 -32 97 -65 187 -72 200 -20 31 -68 30 -90 -3z"/>
<path d="M4891 5594 c-20 -25 -21 -39 -21 -288 0 -190 4 -268 13 -286 l13 -25
171 -3 c185 -3 203 2 203 52 0 47 -26 56 -158 56 l-122 0 0 70 0 70 100 0 c87
0 103 3 120 20 25 25 26 52 2 73 -15 14 -40 17 -120 17 l-102 0 0 78 0 77 108
-2 c68 -1 117 3 133 10 30 16 37 61 13 88 -15 17 -32 19 -175 19 l-158 0 -20
-26z"/>
<path d="M5414 5599 c-17 -19 -19 -43 -21 -287 -2 -202 0 -273 10 -292 12 -24
15 -25 142 -28 72 -2 144 0 162 3 69 13 133 99 133 180 0 44 -28 112 -54 134
-15 13 -15 16 0 39 9 13 18 50 21 81 6 76 -24 136 -86 168 -39 20 -58 23 -166
23 -111 0 -124 -2 -141 -21z m267 -118 c26 -31 24 -57 -6 -86 -21 -22 -33 -25
-95 -25 l-70 0 0 71 0 71 76 -4 c65 -3 79 -7 95 -27z m6 -233 c28 -14 46 -58
37 -92 -11 -44 -39 -56 -131 -56 l-83 0 0 79 0 80 48 3 c58 4 100 0 129 -14z"/>
<path d="M2848 5276 c-13 -7 -26 -24 -29 -41 -4 -17 -7 -156 -8 -310 -1 -311
1 -325 59 -325 54 0 56 10 63 241 11 325 9 391 -8 416 -19 26 -47 34 -77 19z"/>
<path d="M6905 5228 c-11 -6 -23 -16 -27 -22 -4 -6 -8 -149 -8 -318 0 -306 0
-307 22 -322 32 -22 64 -20 82 6 14 19 16 68 16 330 0 306 0 307 -22 322 -26
19 -36 19 -63 4z"/>
<path d="M3374 5200 c-12 -5 -24 -16 -27 -24 -13 -32 -9 -477 4 -492 6 -8 26
-14 45 -14 60 0 64 15 64 270 0 237 -3 252 -45 263 -11 3 -29 2 -41 -3z"/>
<path d="M6370 5160 c-12 -8 -16 -50 -20 -242 -3 -132 -1 -243 4 -255 18 -44
84 -42 104 2 8 17 12 99 12 245 0 207 -1 221 -20 240 -21 21 -55 26 -80 10z"/>
<path d="M4487 4849 c-81 -19 -131 -81 -102 -125 19 -30 58 -31 92 -4 31 24
95 27 117 4 22 -21 20 -67 -2 -87 -11 -10 -36 -17 -60 -17 -29 0 -48 -6 -62
-20 -40 -40 -15 -90 46 -90 19 0 50 -6 68 -14 68 -28 64 -122 -7 -145 -45 -15
-83 -5 -125 31 -37 32 -63 35 -86 12 -59 -58 54 -164 176 -164 110 0 207 88
208 188 0 40 -24 99 -51 129 l-21 21 21 29 c68 92 10 225 -110 252 -50 12 -51
12 -102 0z"/>
<path d="M5165 4827 c-49 -28 -91 -95 -105 -166 -23 -121 -4 -279 41 -345 36
-55 114 -90 187 -84 156 12 220 117 210 343 -9 194 -75 275 -225 275 -52 0
-77 -6 -108 -23z m178 -113 c51 -50 63 -243 20 -317 -38 -64 -123 -73 -165
-17 -41 56 -47 229 -11 304 29 61 110 76 156 30z"/>
<path d="M2635 4317 c-121 -73 -246 -150 -278 -170 l-57 -37 2 -327 3 -327
270 -182 c165 -112 280 -183 295 -183 16 -1 117 60 290 175 146 97 271 183
278 192 9 12 12 87 12 298 l0 282 182 98 c193 104 218 122 218 154 0 26 -34
60 -60 60 -11 0 -103 -45 -206 -101 -102 -55 -191 -98 -197 -96 -7 3 -120 70
-252 151 -132 80 -249 146 -260 146 -11 0 -119 -60 -240 -133z m465 -135 c91
-56 164 -104 163 -109 -3 -14 -385 -254 -397 -249 -36 16 -380 243 -379 250 0
5 88 63 194 127 l193 118 31 -18 c16 -11 104 -64 195 -119z m-560 -297 c52
-33 134 -85 182 -115 l88 -55 0 -223 c0 -127 -4 -222 -9 -220 -5 2 -92 59
-195 128 l-186 125 0 218 c0 172 3 217 13 211 6 -4 55 -35 107 -69z m790 -142
l-1 -218 -191 -127 c-105 -71 -193 -127 -194 -125 -5 4 -7 437 -3 442 6 5 384
245 387 245 1 0 2 -98 2 -217z"/>
<path d="M6870 4393 c-25 -14 -136 -82 -248 -150 -111 -67 -208 -123 -215
-123 -8 0 -102 50 -210 111 -141 79 -203 109 -217 104 -52 -16 -66 -68 -27
-102 12 -11 106 -67 209 -124 l188 -104 0 -286 c0 -260 2 -287 18 -301 40 -36
544 -368 557 -368 16 0 544 350 564 373 9 12 12 93 11 326 0 171 -3 316 -5
323 -3 8 -24 25 -48 39 -290 178 -511 309 -521 309 -6 0 -31 -12 -56 -27z
m201 -196 c73 -45 160 -98 192 -117 31 -19 57 -37 57 -40 0 -3 -64 -46 -143
-96 -233 -150 -246 -158 -267 -148 -31 15 -380 239 -380 244 0 7 383 239 396
240 5 0 71 -37 145 -83z m-404 -392 c92 -59 174 -113 181 -119 16 -16 23 -446
7 -446 -5 0 -94 57 -197 127 l-188 127 0 214 c0 181 2 213 14 209 8 -3 90 -54
183 -112z m713 -99 l0 -215 -180 -121 c-99 -66 -187 -123 -195 -127 -14 -5
-15 22 -13 217 l3 223 185 118 c102 65 188 119 193 119 4 0 7 -97 7 -214z"/>
<path d="M4852 4354 c-50 -34 -15 -124 48 -124 63 0 95 75 53 123 -20 21 -71
22 -101 1z"/>
<path d="M4867 4020 l-27 -21 -2 -386 -3 -387 -250 -151 c-160 -97 -254 -160
-262 -176 -16 -30 -18 -600 -3 -628 15 -28 545 -381 572 -381 23 0 553 347
570 372 4 7 8 153 8 324 0 233 -3 314 -12 326 -7 9 -122 82 -255 163 l-243
147 0 387 c0 295 -3 391 -12 403 -22 27 -53 30 -81 8z m213 -1015 c80 -48 160
-97 178 -108 19 -11 30 -23 25 -28 -4 -4 -87 -58 -183 -120 -96 -61 -182 -116
-191 -121 -12 -8 -47 9 -155 77 -208 131 -257 166 -247 175 4 5 93 61 197 124
172 105 191 115 210 103 12 -8 86 -53 166 -102z m-413 -387 l163 -103 0 -222
c0 -123 -2 -223 -5 -223 -3 0 -91 57 -195 127 l-190 127 0 219 0 219 33 -21
c17 -11 105 -67 194 -123z m683 -75 l0 -218 -193 -127 c-106 -71 -196 -128
-200 -128 -9 0 -9 422 1 436 6 10 380 254 388 254 2 0 4 -98 4 -217z"/>
<path d="M3915 3776 c-19 -14 -26 -70 -9 -86 27 -26 392 -230 411 -230 35 0
66 36 58 68 -4 15 -12 30 -18 34 -94 62 -389 228 -403 228 -11 0 -29 -6 -39
-14z"/>
<path d="M5611 3660 c-107 -60 -198 -115 -203 -122 -15 -25 -8 -67 14 -82 12
-9 28 -16 36 -16 15 0 377 204 405 228 36 32 9 102 -39 102 -11 0 -107 -49
-213 -110z"/>
<path d="M3586 3356 c-31 -30 -32 -46 -8 -74 25 -30 511 -312 537 -312 48 0
74 71 38 102 -25 22 -501 299 -523 305 -12 3 -29 -5 -44 -21z"/>
<path d="M5870 3205 c-140 -80 -261 -153 -267 -162 -29 -38 -2 -93 46 -93 20
0 497 266 534 298 37 32 8 102 -43 102 -8 0 -130 -65 -270 -145z"/>
</g>
</svg>
